<svg width="25" height="25" xmlns="http://www.w3.org/2000/svg" xmlns:xlink="http://www.w3.org/1999/xlink" xml:space="preserve" overflow="hidden"><defs><clipPath id="clip0"><rect x="627" y="347" width="25" height="25"/></clipPath></defs><g clip-path="url(#clip0)" transform="translate(-627 -347)"><path d="M636.986 369.424 636.986 371.956 636.374 371.457C634.715 370.073 633.167 368.56 631.746 366.932 628.595 363.321 627 360.076 627 357.296L627 357.02C627.055 351.505 631.57 347.08 637.085 347.135 642.522 347.189 646.916 351.583 646.971 357.02L646.971 357.296C646.971 357.531 646.959 357.768 646.936 358.008L644.983 356.222C644.542 351.805 640.603 348.582 636.186 349.024 632.078 349.435 628.95 352.891 628.949 357.019L628.949 357.296C628.949 361.998 635.011 367.694 636.986 369.424ZM642.977 368.029 645.899 368.029 645.899 365.101 642.977 365.101ZM636.986 352.879C639.272 352.879 641.126 354.733 641.126 357.019 641.126 359.306 639.272 361.159 636.986 361.159 634.699 361.159 632.846 359.306 632.846 357.019 632.847 354.733 634.699 352.879 636.986 352.876ZM636.986 354.828C635.775 354.828 634.793 355.809 634.793 357.02 634.793 358.231 635.775 359.213 636.986 359.213 638.197 359.213 639.179 358.231 639.179 357.02 639.181 355.809 638.201 354.826 636.99 354.824 636.989 354.824 636.987 354.824 636.986 354.824ZM650.687 366.7 650.139 366.202 650.139 369.329C650.138 370.787 648.956 371.969 647.498 371.971L641.329 371.971C639.871 371.969 638.69 370.787 638.688 369.329L638.688 366.201 638.14 366.699 636.827 365.261 644.414 358.34 652.001 365.261ZM648.196 364.423 644.418 360.976 640.641 364.423 640.641 369.328C640.641 369.714 640.953 370.026 641.338 370.026L647.507 370.026C647.892 370.026 648.205 369.714 648.205 369.328Z" fill="#4472C4"/></g></svg>