<svg width="25" height="25" xmlns="http://www.w3.org/2000/svg" xmlns:xlink="http://www.w3.org/1999/xlink" xml:space="preserve" overflow="hidden"><defs><clipPath id="clip0"><rect x="578" y="347" width="25" height="25"/></clipPath></defs><g clip-path="url(#clip0)" transform="translate(-578 -347)"><path d="M583.86 356.912 581.93 356.912C582.281 352.178 586.403 348.626 591.137 348.977 594.493 349.226 597.395 351.41 598.562 354.566 598.75 355.072 599.311 355.33 599.817 355.143 600.323 354.956 600.582 354.394 600.394 353.888 598.372 348.425 592.304 345.636 586.841 347.658 582.74 349.176 580.002 353.065 579.955 357.437 578.746 358.134 578.001 359.423 578 360.818L578 364.138C578.003 366.294 579.75 368.041 581.906 368.044L583.86 368.044C584.399 368.044 584.836 367.607 584.836 367.068L584.836 357.889C584.836 357.35 584.399 356.912 583.86 356.912ZM582.882 366.089 581.906 366.089C580.828 366.088 579.954 365.215 579.953 364.136L579.953 360.818C579.954 359.74 580.828 358.866 581.906 358.865L582.882 358.865Z" fill="#4472C4"/><path d="M599.094 356.912 597.142 356.912C596.603 356.912 596.166 357.349 596.166 357.889L596.166 368.094C596.165 368.633 595.728 369.07 595.189 369.071L592.211 369.071 592.211 369.102C591.689 368.158 590.501 367.816 589.557 368.338 588.613 368.861 588.271 370.049 588.794 370.993 589.316 371.936 590.504 372.278 591.448 371.756 591.769 371.578 592.033 371.313 592.211 370.993L592.211 371.024 595.189 371.024C596.807 371.022 598.117 369.711 598.119 368.094L598.119 368.045 599.095 368.045C601.251 368.042 602.998 366.295 603.001 364.139L603.001 360.819C602.999 358.662 601.251 356.914 599.094 356.912ZM601.047 364.139C601.046 365.218 600.173 366.091 599.094 366.092L598.118 366.092 598.118 358.865 599.094 358.865C600.173 358.866 601.046 359.74 601.047 360.818Z" fill="#4472C4"/></g></svg>