<svg width="16.075" height="16.075" viewBox="0 0 16.075 16.075" xmlns="http://www.w3.org/2000/svg" xmlns:xlink="http://www.w3.org/1999/xlink" id="https:_www.flaticon.com_free-icon_verified_907830_term_check_page_1_position_15" overflow="hidden"><g id="Group_22"><g id="Group_21"><path d="M13.721 2.354C10.5821-0.78491 5.49291-0.78491 2.354 2.354-0.784911 5.49291-0.784911 10.5821 2.354 13.721 5.49291 16.8599 10.5821 16.8599 13.721 13.721 16.8599 10.5821 16.8599 5.49291 13.721 2.354ZM8.037 15.133C4.11578 15.133 0.937 11.9542 0.937 8.033 0.937 4.11178 4.11578 0.933 8.037 0.933 11.9582 0.933 15.137 4.11178 15.137 8.033 15.137 11.9542 11.9582 15.133 8.037 15.133Z" id="Path_42" fill="#2F5597"/></g></g><g id="Group_24" transform="translate(4.06 5.321)"><g id="Group_23"><path d="M137.118 169.605C136.934 169.421 136.636 169.421 136.452 169.605L132.293 173.764 130.104 171.575C129.923 171.388 129.625 171.383 129.438 171.564 129.251 171.745 129.246 172.043 129.427 172.23 129.43 172.234 129.434 172.237 129.438 172.241L131.96 174.763C132.144 174.947 132.442 174.947 132.626 174.763L137.118 170.271C137.302 170.087 137.302 169.789 137.118 169.605Z" id="Path_43" fill="#2F5597" transform="translate(-129.301 -169.467)"/></g></g></svg>